<svg width="146" height="121" viewBox="0 0 146 121" fill="none" xmlns="http://www.w3.org/2000/svg">
<path d="M23.0977 112H17.8242L7.55859 95.1602V112H2.28516V86.4062H7.55859L17.8418 103.281V86.4062H23.0977V112ZM38.7598 110.066C37.5059 111.59 35.7715 112.352 33.5566 112.352C31.5176 112.352 29.959 111.766 28.8809 110.594C27.8145 109.422 27.2695 107.705 27.2461 105.443V92.9805H32.3262V105.268C32.3262 107.248 33.2285 108.238 35.0332 108.238C36.7559 108.238 37.9395 107.641 38.584 106.445V92.9805H43.6816V112H38.9004L38.7598 110.066ZM53.5957 88.3047V92.9805H56.8477V96.707H53.5957V106.199C53.5957 106.902 53.7305 107.406 54 107.711C54.2695 108.016 54.7852 108.168 55.5469 108.168C56.1094 108.168 56.6074 108.127 57.041 108.045V111.895C56.0449 112.199 55.0195 112.352 53.9648 112.352C50.4023 112.352 48.5859 110.553 48.5156 106.955V96.707H45.7383V92.9805H48.5156V88.3047H53.5957ZM70.3652 97.7441C69.6738 97.6504 69.0645 97.6035 68.5371 97.6035C66.6152 97.6035 65.3555 98.2539 64.7578 99.5547V112H59.6777V92.9805H64.4766L64.6172 95.248C65.6367 93.502 67.0488 92.6289 68.8535 92.6289C69.416 92.6289 69.9434 92.7051 70.4355 92.8574L70.3652 97.7441ZM81.2285 112.352C78.4395 112.352 76.166 111.496 74.4082 109.785C72.6621 108.074 71.7891 105.795 71.7891 102.947V102.455C71.7891 100.545 72.1582 98.8398 72.8965 97.3398C73.6348 95.8281 74.6777 94.668 76.0254 93.8594C77.3848 93.0391 78.9316 92.6289 80.666 92.6289C83.2676 92.6289 85.3125 93.4492 86.8008 95.0898C88.3008 96.7305 89.0508 99.0566 89.0508 102.068V104.143H76.9395C77.1035 105.385 77.5957 106.381 78.416 107.131C79.248 107.881 80.2969 108.256 81.5625 108.256C83.5195 108.256 85.0488 107.547 86.1504 106.129L88.6465 108.924C87.8848 110.002 86.8535 110.846 85.5527 111.455C84.252 112.053 82.8105 112.352 81.2285 112.352ZM80.6484 96.7422C79.6406 96.7422 78.8203 97.082 78.1875 97.7617C77.5664 98.4414 77.168 99.4141 76.9922 100.68H84.0586V100.275C84.0352 99.1504 83.7305 98.2832 83.1445 97.6738C82.5586 97.0527 81.7266 96.7422 80.6484 96.7422ZM102.973 112C102.738 111.543 102.568 110.975 102.463 110.295C101.232 111.666 99.6328 112.352 97.6641 112.352C95.8008 112.352 94.2539 111.812 93.0234 110.734C91.8047 109.656 91.1953 108.297 91.1953 106.656C91.1953 104.641 91.9395 103.094 93.4277 102.016C94.9277 100.938 97.0898 100.393 99.9141 100.381H102.252V99.291C102.252 98.4121 102.023 97.709 101.566 97.1816C101.121 96.6543 100.412 96.3906 99.4395 96.3906C98.584 96.3906 97.9102 96.5957 97.418 97.0059C96.9375 97.416 96.6973 97.9785 96.6973 98.6934H91.6172C91.6172 97.5918 91.957 96.5723 92.6367 95.6348C93.3164 94.6973 94.2773 93.9648 95.5195 93.4375C96.7617 92.8984 98.1562 92.6289 99.7031 92.6289C102.047 92.6289 103.904 93.2207 105.275 94.4043C106.658 95.5762 107.35 97.2285 107.35 99.3613V107.605C107.361 109.41 107.613 110.775 108.105 111.701V112H102.973ZM98.7715 108.467C99.5215 108.467 100.213 108.303 100.846 107.975C101.479 107.635 101.947 107.184 102.252 106.621V103.352H100.354C97.8105 103.352 96.457 104.23 96.293 105.988L96.2754 106.287C96.2754 106.92 96.498 107.441 96.9434 107.852C97.3887 108.262 97.998 108.467 98.7715 108.467ZM121.553 106.744C121.553 106.123 121.242 105.637 120.621 105.285C120.012 104.922 119.027 104.6 117.668 104.318C113.145 103.369 110.883 101.447 110.883 98.5527C110.883 96.8652 111.58 95.459 112.975 94.334C114.381 93.1973 116.215 92.6289 118.477 92.6289C120.891 92.6289 122.818 93.1973 124.26 94.334C125.713 95.4707 126.439 96.9473 126.439 98.7637H121.359C121.359 98.0371 121.125 97.4395 120.656 96.9707C120.188 96.4902 119.455 96.25 118.459 96.25C117.604 96.25 116.941 96.4434 116.473 96.8301C116.004 97.2168 115.77 97.709 115.77 98.3066C115.77 98.8691 116.033 99.3262 116.561 99.6777C117.1 100.018 118.002 100.316 119.268 100.574C120.533 100.82 121.6 101.102 122.467 101.418C125.15 102.402 126.492 104.107 126.492 106.533C126.492 108.268 125.748 109.674 124.26 110.752C122.771 111.818 120.85 112.352 118.494 112.352C116.9 112.352 115.482 112.07 114.24 111.508C113.01 110.934 112.043 110.154 111.34 109.17C110.637 108.174 110.285 107.102 110.285 105.953H115.102C115.148 106.855 115.482 107.547 116.104 108.027C116.725 108.508 117.557 108.748 118.6 108.748C119.572 108.748 120.305 108.566 120.797 108.203C121.301 107.828 121.553 107.342 121.553 106.744ZM136.881 104.811L140.396 92.9805H145.846L138.199 114.953L137.777 115.955C136.641 118.439 134.766 119.682 132.152 119.682C131.414 119.682 130.664 119.57 129.902 119.348V115.498L130.676 115.516C131.637 115.516 132.352 115.369 132.82 115.076C133.301 114.783 133.676 114.297 133.945 113.617L134.543 112.053L127.881 92.9805H133.348L136.881 104.811Z" fill="#A8DADC"/>
<path d="M114.924 36.6504H112.727V27.7734C112.727 25.6896 111.031 23.9941 108.947 23.9941H103.322C102.924 23.9941 102.54 24.0569 102.18 24.1717V23.6426C102.18 20.7833 99.8534 18.457 96.9941 18.457H89.9629C87.1036 18.457 84.7773 20.7833 84.7773 23.6426V39.1625H61.2227V23.6426C61.2227 20.7833 58.8964 18.457 56.0371 18.457H49.0059C46.1466 18.457 43.8203 20.7833 43.8203 23.6426V24.1717C43.4596 24.0569 43.0759 23.9941 42.6777 23.9941H37.0527C34.9688 23.9941 33.2734 25.6896 33.2734 27.7734V29.4762C33.2734 30.2043 33.8637 30.7946 34.5918 30.7946C35.3199 30.7946 35.9102 30.2043 35.9102 29.4762V27.7734C35.9102 27.1434 36.4227 26.6309 37.0527 26.6309H42.6777C43.3077 26.6309 43.8203 27.1434 43.8203 27.7734V62.2266C43.8203 62.8566 43.3077 63.3691 42.6777 63.3691H37.0527C36.4227 63.3691 35.9102 62.8566 35.9102 62.2266V35.1174C35.9102 34.3893 35.3199 33.799 34.5918 33.799C33.8637 33.799 33.2734 34.3893 33.2734 35.1174V36.6504H31.0762C29.3801 36.6504 28 38.0304 28 39.7266V50.2734C28 51.9696 29.3801 53.3496 31.0762 53.3496H33.2734V62.2266C33.2734 64.3104 34.9688 66.0059 37.0527 66.0059H42.6777C43.0759 66.0059 43.4596 65.9431 43.8203 65.8283V66.3574C43.8203 69.2167 46.1466 71.543 49.0059 71.543H56.0371C58.8964 71.543 61.2227 69.2167 61.2227 66.3574V50.8375H63.1415C63.8696 50.8375 64.4598 50.2472 64.4598 49.5192C64.4598 48.7911 63.8696 48.2008 63.1415 48.2008H61.2227V41.7992H84.7773V48.2008H68.8565C68.1284 48.2008 67.5381 48.7911 67.5381 49.5192C67.5381 50.2472 68.1284 50.8375 68.8565 50.8375H84.7773V66.3574C84.7773 69.2167 87.1036 71.543 89.9629 71.543H96.9941C99.8534 71.543 102.18 69.2167 102.18 66.3574V65.8283C102.54 65.9431 102.924 66.0059 103.322 66.0059H108.947C111.031 66.0059 112.727 64.3104 112.727 62.2266V60.4463C112.727 59.7182 112.136 59.1279 111.408 59.1279C110.68 59.1279 110.09 59.7182 110.09 60.4463V62.2266C110.09 62.8566 109.577 63.3691 108.947 63.3691H103.322C102.692 63.3691 102.18 62.8566 102.18 62.2266V27.7734C102.18 27.1434 102.692 26.6309 103.322 26.6309H108.947C109.577 26.6309 110.09 27.1434 110.09 27.7734V54.7559C110.09 55.4839 110.68 56.0742 111.408 56.0742C112.136 56.0742 112.727 55.4839 112.727 54.7559V53.3496H114.924C116.62 53.3496 118 51.9696 118 50.2734V39.7266C118 38.0304 116.62 36.6504 114.924 36.6504ZM31.0762 50.7129C30.8339 50.7129 30.6367 50.5157 30.6367 50.2734V39.7266C30.6367 39.4843 30.8339 39.2871 31.0762 39.2871H33.2734V50.7129H31.0762ZM58.5859 66.3574C58.5859 67.7628 57.4425 68.9062 56.0371 68.9062H49.0059C47.6005 68.9062 46.457 67.7628 46.457 66.3574V23.6426C46.457 22.2372 47.6005 21.0938 49.0059 21.0938H56.0371C57.4425 21.0938 58.5859 22.2372 58.5859 23.6426V66.3574ZM99.543 66.3574C99.543 67.7628 98.3995 68.9062 96.9941 68.9062H89.9629C88.5575 68.9062 87.4141 67.7628 87.4141 66.3574V23.6426C87.4141 22.2372 88.5575 21.0938 89.9629 21.0938H96.9941C98.3995 21.0938 99.543 22.2372 99.543 23.6426V66.3574ZM115.363 50.2734C115.363 50.5157 115.166 50.7129 114.924 50.7129H112.727V39.2871H114.924C115.166 39.2871 115.363 39.4843 115.363 39.7266V50.2734Z" fill="#A8DADC"/>
</svg>
